<svg width="512" height="512" viewBox="0 0 512 512" fill="none" xmlns="http://www.w3.org/2000/svg">
  <defs>
    <linearGradient id="bg" x1="64" y1="48" x2="448" y2="464" gradientUnits="userSpaceOnUse">
      <stop stop-color="#0CA276"/>
      <stop offset="1" stop-color="#086349"/>
    </linearGradient>
    <linearGradient id="pin" x1="170" y1="142" x2="340" y2="334" gradientUnits="userSpaceOnUse">
      <stop stop-color="#F2FFF6"/>
      <stop offset="1" stop-color="#D9F4E3"/>
    </linearGradient>
  </defs>

  <rect x="24" y="24" width="464" height="464" rx="112" fill="url(#bg)"/>
  <rect x="24" y="24" width="464" height="464" rx="112" stroke="#A6E5C6" stroke-width="10"/>

  <path d="M256 116C191.04 116 138.4 168.64 138.4 233.6C138.4 305.2 209.28 373.68 245.52 404.48C251.6 409.68 260.4 409.68 266.48 404.48C302.72 373.68 373.6 305.2 373.6 233.6C373.6 168.64 320.96 116 256 116Z" fill="url(#pin)"/>
  <circle cx="256" cy="233" r="54" fill="#0B8A68"/>

  <rect x="177" y="299" width="158" height="78" rx="20" fill="#0B8A68" stroke="#DDF8EA" stroke-width="8"/>
  <rect x="211" y="281" width="90" height="22" rx="11" fill="#DDF8EA"/>
  <circle cx="221" cy="338" r="12" fill="#DDF8EA"/>
  <circle cx="291" cy="338" r="12" fill="#DDF8EA"/>
</svg>
